# xmcd
#
# Track frame offsets:
#	150
#	16625
#	28788
#	51736
#	74801
#	91876
#	110067
#	124697
#	141681
#	160189
#	174736
#	197129
#	215525
#	236690
#	254758
#	280980
#	296790
#
# Disc length: 4237 seconds
#
# Revision: 1
# Processed by: cddbd v1.5.1PL0 Copyright (c) Steve Scherf et al.
# Submitted via: audiograbber 1.80.04
#
DISCID=1b108b11
DTITLE=Группа Любэ - Ты неси меня река
DYEAR=1900
DGENRE=
TTITLE0=Ты неси меня, река
TTITLE1=Позови меня тихо по имени
TTITLE2=Комбат
TTITLE3=Солдат
TTITLE4=Там за туманами
TTITLE5=Прорвемся (опера)
TTITLE6=Самоволочка
TTITLE7=Главное, что ты есть у меня
TTITLE8=За тебя
TTITLE9=Атас
TTITLE10=Дороги
TTITLE11=Младшая сестра
TTITLE12=Сворцы
TTITLE13=Не губите, мужики
TTITLE14=Луна
TTITLE15=Не валяй дурака, Америка
TTITLE16=Трамвай пятерочка
EXTD=
EXTT0=
EXTT1=
EXTT2=
EXTT3=
EXTT4=
EXTT5=
EXTT6=
EXTT7=
EXTT8=
EXTT9=
EXTT10=
EXTT11=
EXTT12=
EXTT13=
EXTT14=
EXTT15=
EXTT16=
PLAYORDER=
